<?xml version="1.0" standalone="no"?><svg xmlns="http://www.w3.org/2000/svg" viewBox="0 0 1440 320"><path fill="#f3f5fa" fill-opacity="1" d="M0,96L30,85.3C60,75,120,53,180,53.3C240,53,300,75,360,112C420,149,480,203,540,224C600,245,660,235,720,218.7C780,203,840,181,900,165.3C960,149,1020,139,1080,112C1140,85,1200,43,1260,64C1320,85,1380,171,1410,213.3L1440,256L1440,0L1410,0C1380,0,1320,0,1260,0C1200,0,1140,0,1080,0C1020,0,960,0,900,0C840,0,780,0,720,0C660,0,600,0,540,0C480,0,420,0,360,0C300,0,240,0,180,0C120,0,60,0,30,0L0,0Z"></path></svg>